<?xml version="1.0" standalone="no"?>
<!DOCTYPE svg PUBLIC "-//W3C//DTD SVG 20010904//EN"
 "http://www.w3.org/TR/2001/REC-SVG-20010904/DTD/svg10.dtd">
<svg version="1.0" xmlns="http://www.w3.org/2000/svg"
 width="1200.000000pt" height="1200.000000pt" viewBox="0 0 1200.000000 1200.000000"
 preserveAspectRatio="xMidYMid meet">

<g transform="translate(0.000000,1200.000000) scale(0.100000,-0.100000)"
fill="#000000" stroke="none">
<path d="M5840 11993 c-277 -26 -463 -68 -695 -155 -75 -28 -563 -265 -2410
-1168 -407 -199 -786 -389 -843 -423 -411 -244 -770 -650 -962 -1087 -100
-228 -117 -294 -504 -2018 -206 -917 -382 -1705 -390 -1752 -52 -302 -44 -627
24 -945 55 -256 192 -583 338 -805 75 -115 2080 -2673 2222 -2836 240 -275
562 -500 910 -637 207 -81 441 -136 665 -157 151 -14 3448 -13 3610 1 248 21
524 92 759 195 302 132 621 368 833 617 95 111 2073 2628 2155 2742 171 239
324 585 388 880 68 316 76 644 24 945 -35 201 -757 3385 -795 3504 -180 570
-561 1055 -1062 1354 -87 52 -636 325 -1332 662 -88 43 -511 250 -940 460
-952 466 -1010 492 -1250 555 -226 58 -544 88 -745 68z m381 -1109 c198 -32
72 26 2050 -941 944 -462 1289 -636 1359 -684 236 -161 431 -426 514 -699 34
-109 751 -3299 765 -3403 43 -310 -37 -658 -212 -922 -78 -119 -2084 -2665
-2160 -2743 -193 -197 -437 -326 -717 -379 -89 -17 -203 -18 -1820 -18 -1617
0 -1731 1 -1820 18 -283 53 -528 184 -721 383 -62 65 -1975 2489 -2133 2704
-64 86 -159 283 -191 395 -52 180 -68 389 -44 562 14 104 731 3294 765 3403
89 292 282 548 541 717 71 46 439 232 878 443 66 32 577 281 1135 555 558 273
1058 514 1110 536 221 89 453 114 701 73z"/>
</g>
</svg>
